<svg xmlns="http://www.w3.org/2000/svg" viewBox="0 0 1600 900" preserveAspectRatio="xMidYMid slice">
<polygon points="0.0,0.0 126.4,0.0 0.0,102.5" fill="#FAFAFB" />
<polygon points="126.4,0.0 118.1,78.1 0.0,102.5" fill="#F8F7F9" />
<polygon points="126.4,0.0 231.4,0.0 193.3,89.3" fill="#EDEDF1" />
<polygon points="126.4,0.0 193.3,89.3 118.1,78.1" fill="#F8F7F9" />
<polygon points="231.4,0.0 307.5,0.0 193.3,89.3" fill="#FAFAFB" />
<polygon points="307.5,0.0 357.3,106.8 193.3,89.3" fill="#FAFAFB" />
<polygon points="307.5,0.0 420.1,0.0 442.3,119.2" fill="#EDEDF1" />
<polygon points="307.5,0.0 442.3,119.2 357.3,106.8" fill="#F0EFF2" />
<polygon points="420.1,0.0 537.0,0.0 442.3,119.2" fill="#F8F7F9" />
<polygon points="537.0,0.0 567.7,96.7 442.3,119.2" fill="#F8F7F9" />
<polygon points="537.0,0.0 679.7,0.0 709.3,128.2" fill="#F8F7F9" />
<polygon points="537.0,0.0 709.3,128.2 567.7,96.7" fill="#F8F7F9" />
<polygon points="679.7,0.0 769.9,0.0 709.3,128.2" fill="#F5F5F7" />
<polygon points="769.9,0.0 779.5,118.4 709.3,128.2" fill="#F0EFF2" />
<polygon points="769.9,0.0 924.5,0.0 916.3,142.0" fill="#EDEDF1" />
<polygon points="769.9,0.0 916.3,142.0 779.5,118.4" fill="#F8F7F9" />
<polygon points="924.5,0.0 1034.7,0.0 916.3,142.0" fill="#F8F7F9" />
<polygon points="1034.7,0.0 1046.9,95.8 916.3,142.0" fill="#EDEDF1" />
<polygon points="1034.7,0.0 1181.0,0.0 1181.3,82.4" fill="#F8F7F9" />
<polygon points="1034.7,0.0 1181.3,82.4 1046.9,95.8" fill="#F5F5F7" />
<polygon points="1181.0,0.0 1285.8,0.0 1181.3,82.4" fill="#F8F7F9" />
<polygon points="1285.8,0.0 1250.6,132.7 1181.3,82.4" fill="#F0EFF2" />
<polygon points="1285.8,0.0 1343.0,0.0 1343.6,111.6" fill="#F8F7F9" />
<polygon points="1285.8,0.0 1343.6,111.6 1250.6,132.7" fill="#F5F5F7" />
<polygon points="1343.0,0.0 1470.4,0.0 1343.6,111.6" fill="#EDEDF1" />
<polygon points="1470.4,0.0 1448.9,125.7 1343.6,111.6" fill="#F5F5F7" />
<polygon points="1470.4,0.0 1600.0,0.0 1600.0,118.3" fill="#EDEDF1" />
<polygon points="1470.4,0.0 1600.0,118.3 1448.9,125.7" fill="#FAFAFB" />
<polygon points="0.0,102.5 118.1,78.1 129.9,232.4" fill="#EDEDF1" />
<polygon points="0.0,102.5 129.9,232.4 0.0,210.3" fill="#EDEDF1" />
<polygon points="118.1,78.1 193.3,89.3 129.9,232.4" fill="#F0EFF2" />
<polygon points="193.3,89.3 235.0,221.6 129.9,232.4" fill="#FAFAFB" />
<polygon points="193.3,89.3 357.3,106.8 370.1,260.0" fill="#F5F5F7" />
<polygon points="193.3,89.3 370.1,260.0 235.0,221.6" fill="#EDEDF1" />
<polygon points="357.3,106.8 442.3,119.2 370.1,260.0" fill="#FAFAFB" />
<polygon points="442.3,119.2 455.1,237.9 370.1,260.0" fill="#F5F5F7" />
<polygon points="442.3,119.2 567.7,96.7 536.3,240.9" fill="#F0EFF2" />
<polygon points="442.3,119.2 536.3,240.9 455.1,237.9" fill="#FAFAFB" />
<polygon points="567.7,96.7 709.3,128.2 536.3,240.9" fill="#F5F5F7" />
<polygon points="709.3,128.2 697.5,263.8 536.3,240.9" fill="#F0EFF2" />
<polygon points="709.3,128.2 779.5,118.4 825.8,208.0" fill="#F5F5F7" />
<polygon points="709.3,128.2 825.8,208.0 697.5,263.8" fill="#F0EFF2" />
<polygon points="779.5,118.4 916.3,142.0 825.8,208.0" fill="#F5F5F7" />
<polygon points="916.3,142.0 905.1,238.3 825.8,208.0" fill="#EDEDF1" />
<polygon points="916.3,142.0 1046.9,95.8 990.4,222.0" fill="#F5F5F7" />
<polygon points="916.3,142.0 990.4,222.0 905.1,238.3" fill="#FAFAFB" />
<polygon points="1046.9,95.8 1181.3,82.4 990.4,222.0" fill="#EDEDF1" />
<polygon points="1181.3,82.4 1116.3,194.8 990.4,222.0" fill="#EDEDF1" />
<polygon points="1181.3,82.4 1250.6,132.7 1221.9,246.1" fill="#F5F5F7" />
<polygon points="1181.3,82.4 1221.9,246.1 1116.3,194.8" fill="#F5F5F7" />
<polygon points="1250.6,132.7 1343.6,111.6 1221.9,246.1" fill="#F5F5F7" />
<polygon points="1343.6,111.6 1341.8,205.1 1221.9,246.1" fill="#EDEDF1" />
<polygon points="1343.6,111.6 1448.9,125.7 1477.0,254.2" fill="#F8F7F9" />
<polygon points="1343.6,111.6 1477.0,254.2 1341.8,205.1" fill="#EDEDF1" />
<polygon points="1448.9,125.7 1600.0,118.3 1477.0,254.2" fill="#F0EFF2" />
<polygon points="1600.0,118.3 1600.0,221.0 1477.0,254.2" fill="#EDEDF1" />
<polygon points="0.0,210.3 129.9,232.4 0.0,367.7" fill="#F5F5F7" />
<polygon points="129.9,232.4 139.8,366.2 0.0,367.7" fill="#F0EFF2" />
<polygon points="129.9,232.4 235.0,221.6 210.8,330.8" fill="#F0EFF2" />
<polygon points="129.9,232.4 210.8,330.8 139.8,366.2" fill="#FAFAFB" />
<polygon points="235.0,221.6 370.1,260.0 210.8,330.8" fill="#F0EFF2" />
<polygon points="370.1,260.0 331.6,367.8 210.8,330.8" fill="#FAFAFB" />
<polygon points="370.1,260.0 455.1,237.9 493.8,310.0" fill="#F0EFF2" />
<polygon points="370.1,260.0 493.8,310.0 331.6,367.8" fill="#F8F7F9" />
<polygon points="455.1,237.9 536.3,240.9 493.8,310.0" fill="#EDEDF1" />
<polygon points="536.3,240.9 545.5,316.4 493.8,310.0" fill="#EDEDF1" />
<polygon points="536.3,240.9 697.5,263.8 664.4,336.3" fill="#FAFAFB" />
<polygon points="536.3,240.9 664.4,336.3 545.5,316.4" fill="#EDEDF1" />
<polygon points="697.5,263.8 825.8,208.0 664.4,336.3" fill="#F0EFF2" />
<polygon points="825.8,208.0 807.1,318.8 664.4,336.3" fill="#F8F7F9" />
<polygon points="825.8,208.0 905.1,238.3 874.6,331.1" fill="#F8F7F9" />
<polygon points="825.8,208.0 874.6,331.1 807.1,318.8" fill="#F0EFF2" />
<polygon points="905.1,238.3 990.4,222.0 874.6,331.1" fill="#F8F7F9" />
<polygon points="990.4,222.0 1018.1,342.7 874.6,331.1" fill="#FAFAFB" />
<polygon points="990.4,222.0 1116.3,194.8 1179.1,352.5" fill="#FAFAFB" />
<polygon points="990.4,222.0 1179.1,352.5 1018.1,342.7" fill="#F5F5F7" />
<polygon points="1116.3,194.8 1221.9,246.1 1179.1,352.5" fill="#FAFAFB" />
<polygon points="1221.9,246.1 1258.4,346.8 1179.1,352.5" fill="#FAFAFB" />
<polygon points="1221.9,246.1 1341.8,205.1 1385.5,302.4" fill="#F0EFF2" />
<polygon points="1221.9,246.1 1385.5,302.4 1258.4,346.8" fill="#F0EFF2" />
<polygon points="1341.8,205.1 1477.0,254.2 1385.5,302.4" fill="#FAFAFB" />
<polygon points="1477.0,254.2 1517.7,359.5 1385.5,302.4" fill="#F5F5F7" />
<polygon points="1477.0,254.2 1600.0,221.0 1600.0,361.0" fill="#F0EFF2" />
<polygon points="1477.0,254.2 1600.0,361.0 1517.7,359.5" fill="#F5F5F7" />
<polygon points="0.0,367.7 139.8,366.2 82.6,460.6" fill="#EDEDF1" />
<polygon points="0.0,367.7 82.6,460.6 0.0,442.0" fill="#F0EFF2" />
<polygon points="139.8,366.2 210.8,330.8 82.6,460.6" fill="#EDEDF1" />
<polygon points="210.8,330.8 193.6,415.9 82.6,460.6" fill="#F5F5F7" />
<polygon points="210.8,330.8 331.6,367.8 319.6,423.4" fill="#F8F7F9" />
<polygon points="210.8,330.8 319.6,423.4 193.6,415.9" fill="#F8F7F9" />
<polygon points="331.6,367.8 493.8,310.0 319.6,423.4" fill="#F8F7F9" />
<polygon points="493.8,310.0 444.3,414.8 319.6,423.4" fill="#EDEDF1" />
<polygon points="493.8,310.0 545.5,316.4 531.4,422.5" fill="#F0EFF2" />
<polygon points="493.8,310.0 531.4,422.5 444.3,414.8" fill="#FAFAFB" />
<polygon points="545.5,316.4 664.4,336.3 531.4,422.5" fill="#F0EFF2" />
<polygon points="664.4,336.3 653.8,439.3 531.4,422.5" fill="#FAFAFB" />
<polygon points="664.4,336.3 807.1,318.8 762.0,479.5" fill="#F5F5F7" />
<polygon points="664.4,336.3 762.0,479.5 653.8,439.3" fill="#EDEDF1" />
<polygon points="807.1,318.8 874.6,331.1 762.0,479.5" fill="#FAFAFB" />
<polygon points="874.6,331.1 923.4,422.3 762.0,479.5" fill="#F0EFF2" />
<polygon points="874.6,331.1 1018.1,342.7 1008.8,438.0" fill="#FAFAFB" />
<polygon points="874.6,331.1 1008.8,438.0 923.4,422.3" fill="#FAFAFB" />
<polygon points="1018.1,342.7 1179.1,352.5 1008.8,438.0" fill="#F0EFF2" />
<polygon points="1179.1,352.5 1132.0,420.3 1008.8,438.0" fill="#FAFAFB" />
<polygon points="1179.1,352.5 1258.4,346.8 1285.1,488.8" fill="#F8F7F9" />
<polygon points="1179.1,352.5 1285.1,488.8 1132.0,420.3" fill="#F5F5F7" />
<polygon points="1258.4,346.8 1385.5,302.4 1285.1,488.8" fill="#FAFAFB" />
<polygon points="1385.5,302.4 1368.7,448.7 1285.1,488.8" fill="#F0EFF2" />
<polygon points="1385.5,302.4 1517.7,359.5 1452.6,418.7" fill="#FAFAFB" />
<polygon points="1385.5,302.4 1452.6,418.7 1368.7,448.7" fill="#EDEDF1" />
<polygon points="1517.7,359.5 1600.0,361.0 1452.6,418.7" fill="#FAFAFB" />
<polygon points="1600.0,361.0 1600.0,431.5 1452.6,418.7" fill="#F0EFF2" />
<polygon points="0.0,442.0 82.6,460.6 0.0,535.8" fill="#F8F7F9" />
<polygon points="82.6,460.6 76.1,598.0 0.0,535.8" fill="#EDEDF1" />
<polygon points="82.6,460.6 193.6,415.9 230.8,534.7" fill="#F0EFF2" />
<polygon points="82.6,460.6 230.8,534.7 76.1,598.0" fill="#F8F7F9" />
<polygon points="193.6,415.9 319.6,423.4 230.8,534.7" fill="#F5F5F7" />
<polygon points="319.6,423.4 346.3,525.3 230.8,534.7" fill="#FAFAFB" />
<polygon points="319.6,423.4 444.3,414.8 459.4,600.2" fill="#F8F7F9" />
<polygon points="319.6,423.4 459.4,600.2 346.3,525.3" fill="#F5F5F7" />
<polygon points="444.3,414.8 531.4,422.5 459.4,600.2" fill="#FAFAFB" />
<polygon points="531.4,422.5 600.5,578.0 459.4,600.2" fill="#F5F5F7" />
<polygon points="531.4,422.5 653.8,439.3 666.6,552.0" fill="#F0EFF2" />
<polygon points="531.4,422.5 666.6,552.0 600.5,578.0" fill="#FAFAFB" />
<polygon points="653.8,439.3 762.0,479.5 666.6,552.0" fill="#F5F5F7" />
<polygon points="762.0,479.5 773.4,583.9 666.6,552.0" fill="#F5F5F7" />
<polygon points="762.0,479.5 923.4,422.3 916.9,584.5" fill="#F0EFF2" />
<polygon points="762.0,479.5 916.9,584.5 773.4,583.9" fill="#F0EFF2" />
<polygon points="923.4,422.3 1008.8,438.0 916.9,584.5" fill="#F8F7F9" />
<polygon points="1008.8,438.0 1014.9,540.7 916.9,584.5" fill="#F5F5F7" />
<polygon points="1008.8,438.0 1132.0,420.3 1167.8,600.7" fill="#F0EFF2" />
<polygon points="1008.8,438.0 1167.8,600.7 1014.9,540.7" fill="#EDEDF1" />
<polygon points="1132.0,420.3 1285.1,488.8 1167.8,600.7" fill="#F8F7F9" />
<polygon points="1285.1,488.8 1285.4,586.6 1167.8,600.7" fill="#F5F5F7" />
<polygon points="1285.1,488.8 1368.7,448.7 1396.9,581.4" fill="#F0EFF2" />
<polygon points="1285.1,488.8 1396.9,581.4 1285.4,586.6" fill="#F0EFF2" />
<polygon points="1368.7,448.7 1452.6,418.7 1396.9,581.4" fill="#FAFAFB" />
<polygon points="1452.6,418.7 1463.9,563.9 1396.9,581.4" fill="#F0EFF2" />
<polygon points="1452.6,418.7 1600.0,431.5 1600.0,525.4" fill="#FAFAFB" />
<polygon points="1452.6,418.7 1600.0,525.4 1463.9,563.9" fill="#FAFAFB" />
<polygon points="0.0,535.8 76.1,598.0 95.0,690.2" fill="#FAFAFB" />
<polygon points="0.0,535.8 95.0,690.2 0.0,657.6" fill="#F8F7F9" />
<polygon points="76.1,598.0 230.8,534.7 95.0,690.2" fill="#F8F7F9" />
<polygon points="230.8,534.7 265.1,670.8 95.0,690.2" fill="#F5F5F7" />
<polygon points="230.8,534.7 346.3,525.3 377.8,713.4" fill="#F8F7F9" />
<polygon points="230.8,534.7 377.8,713.4 265.1,670.8" fill="#EDEDF1" />
<polygon points="346.3,525.3 459.4,600.2 377.8,713.4" fill="#F5F5F7" />
<polygon points="459.4,600.2 493.5,664.3 377.8,713.4" fill="#EDEDF1" />
<polygon points="459.4,600.2 600.5,578.0 549.1,653.5" fill="#FAFAFB" />
<polygon points="459.4,600.2 549.1,653.5 493.5,664.3" fill="#EDEDF1" />
<polygon points="600.5,578.0 666.6,552.0 549.1,653.5" fill="#EDEDF1" />
<polygon points="666.6,552.0 661.5,651.7 549.1,653.5" fill="#F8F7F9" />
<polygon points="666.6,552.0 773.4,583.9 809.9,706.5" fill="#EDEDF1" />
<polygon points="666.6,552.0 809.9,706.5 661.5,651.7" fill="#F8F7F9" />
<polygon points="773.4,583.9 916.9,584.5 809.9,706.5" fill="#F0EFF2" />
<polygon points="916.9,584.5 941.5,673.4 809.9,706.5" fill="#F5F5F7" />
<polygon points="916.9,584.5 1014.9,540.7 1040.8,698.6" fill="#F5F5F7" />
<polygon points="916.9,584.5 1040.8,698.6 941.5,673.4" fill="#F0EFF2" />
<polygon points="1014.9,540.7 1167.8,600.7 1040.8,698.6" fill="#F5F5F7" />
<polygon points="1167.8,600.7 1109.6,687.6 1040.8,698.6" fill="#F5F5F7" />
<polygon points="1167.8,600.7 1285.4,586.6 1289.9,697.2" fill="#EDEDF1" />
<polygon points="1167.8,600.7 1289.9,697.2 1109.6,687.6" fill="#F0EFF2" />
<polygon points="1285.4,586.6 1396.9,581.4 1289.9,697.2" fill="#FAFAFB" />
<polygon points="1396.9,581.4 1391.4,673.3 1289.9,697.2" fill="#F5F5F7" />
<polygon points="1396.9,581.4 1463.9,563.9 1460.0,697.8" fill="#FAFAFB" />
<polygon points="1396.9,581.4 1460.0,697.8 1391.4,673.3" fill="#FAFAFB" />
<polygon points="1463.9,563.9 1600.0,525.4 1460.0,697.8" fill="#F0EFF2" />
<polygon points="1600.0,525.4 1600.0,698.7 1460.0,697.8" fill="#EDEDF1" />
<polygon points="0.0,657.6 95.0,690.2 0.0,779.3" fill="#F5F5F7" />
<polygon points="95.0,690.2 106.4,822.7 0.0,779.3" fill="#FAFAFB" />
<polygon points="95.0,690.2 265.1,670.8 246.6,761.5" fill="#FAFAFB" />
<polygon points="95.0,690.2 246.6,761.5 106.4,822.7" fill="#EDEDF1" />
<polygon points="265.1,670.8 377.8,713.4 246.6,761.5" fill="#F8F7F9" />
<polygon points="377.8,713.4 313.0,760.0 246.6,761.5" fill="#F0EFF2" />
<polygon points="377.8,713.4 493.5,664.3 489.5,811.6" fill="#F8F7F9" />
<polygon points="377.8,713.4 489.5,811.6 313.0,760.0" fill="#F5F5F7" />
<polygon points="493.5,664.3 549.1,653.5 489.5,811.6" fill="#F0EFF2" />
<polygon points="549.1,653.5 543.1,813.2 489.5,811.6" fill="#FAFAFB" />
<polygon points="549.1,653.5 661.5,651.7 724.1,799.9" fill="#EDEDF1" />
<polygon points="549.1,653.5 724.1,799.9 543.1,813.2" fill="#F5F5F7" />
<polygon points="661.5,651.7 809.9,706.5 724.1,799.9" fill="#F5F5F7" />
<polygon points="809.9,706.5 788.0,791.3 724.1,799.9" fill="#F0EFF2" />
<polygon points="809.9,706.5 941.5,673.4 884.8,749.2" fill="#EDEDF1" />
<polygon points="809.9,706.5 884.8,749.2 788.0,791.3" fill="#FAFAFB" />
<polygon points="941.5,673.4 1040.8,698.6 884.8,749.2" fill="#F0EFF2" />
<polygon points="1040.8,698.6 1066.2,799.3 884.8,749.2" fill="#F0EFF2" />
<polygon points="1040.8,698.6 1109.6,687.6 1145.0,821.6" fill="#F0EFF2" />
<polygon points="1040.8,698.6 1145.0,821.6 1066.2,799.3" fill="#F8F7F9" />
<polygon points="1109.6,687.6 1289.9,697.2 1145.0,821.6" fill="#F0EFF2" />
<polygon points="1289.9,697.2 1251.8,816.8 1145.0,821.6" fill="#F5F5F7" />
<polygon points="1289.9,697.2 1391.4,673.3 1397.5,764.7" fill="#FAFAFB" />
<polygon points="1289.9,697.2 1397.5,764.7 1251.8,816.8" fill="#F0EFF2" />
<polygon points="1391.4,673.3 1460.0,697.8 1397.5,764.7" fill="#F5F5F7" />
<polygon points="1460.0,697.8 1465.9,771.2 1397.5,764.7" fill="#F0EFF2" />
<polygon points="1460.0,697.8 1600.0,698.7 1600.0,794.3" fill="#F5F5F7" />
<polygon points="1460.0,697.8 1600.0,794.3 1465.9,771.2" fill="#FAFAFB" />
<polygon points="0.0,779.3 106.4,822.7 84.8,900.0" fill="#F0EFF2" />
<polygon points="0.0,779.3 84.8,900.0 0.0,900.0" fill="#EDEDF1" />
<polygon points="106.4,822.7 246.6,761.5 84.8,900.0" fill="#FAFAFB" />
<polygon points="246.6,761.5 216.9,900.0 84.8,900.0" fill="#EDEDF1" />
<polygon points="246.6,761.5 313.0,760.0 349.5,900.0" fill="#F0EFF2" />
<polygon points="246.6,761.5 349.5,900.0 216.9,900.0" fill="#F8F7F9" />
<polygon points="313.0,760.0 489.5,811.6 349.5,900.0" fill="#F5F5F7" />
<polygon points="489.5,811.6 450.8,900.0 349.5,900.0" fill="#F5F5F7" />
<polygon points="489.5,811.6 543.1,813.2 571.6,900.0" fill="#F8F7F9" />
<polygon points="489.5,811.6 571.6,900.0 450.8,900.0" fill="#FAFAFB" />
<polygon points="543.1,813.2 724.1,799.9 571.6,900.0" fill="#FAFAFB" />
<polygon points="724.1,799.9 687.6,900.0 571.6,900.0" fill="#F0EFF2" />
<polygon points="724.1,799.9 788.0,791.3 795.2,900.0" fill="#FAFAFB" />
<polygon points="724.1,799.9 795.2,900.0 687.6,900.0" fill="#F5F5F7" />
<polygon points="788.0,791.3 884.8,749.2 795.2,900.0" fill="#EDEDF1" />
<polygon points="884.8,749.2 874.6,900.0 795.2,900.0" fill="#F8F7F9" />
<polygon points="884.8,749.2 1066.2,799.3 1002.4,900.0" fill="#FAFAFB" />
<polygon points="884.8,749.2 1002.4,900.0 874.6,900.0" fill="#EDEDF1" />
<polygon points="1066.2,799.3 1145.0,821.6 1002.4,900.0" fill="#FAFAFB" />
<polygon points="1145.0,821.6 1160.9,900.0 1002.4,900.0" fill="#F0EFF2" />
<polygon points="1145.0,821.6 1251.8,816.8 1243.2,900.0" fill="#F0EFF2" />
<polygon points="1145.0,821.6 1243.2,900.0 1160.9,900.0" fill="#F5F5F7" />
<polygon points="1251.8,816.8 1397.5,764.7 1243.2,900.0" fill="#FAFAFB" />
<polygon points="1397.5,764.7 1375.9,900.0 1243.2,900.0" fill="#F8F7F9" />
<polygon points="1397.5,764.7 1465.9,771.2 1454.2,900.0" fill="#F8F7F9" />
<polygon points="1397.5,764.7 1454.2,900.0 1375.9,900.0" fill="#F5F5F7" />
<polygon points="1465.9,771.2 1600.0,794.3 1454.2,900.0" fill="#F8F7F9" />
<polygon points="1600.0,794.3 1600.0,900.0 1454.2,900.0" fill="#EDEDF1" />
</svg>