<svg xmlns="http://www.w3.org/2000/svg" viewBox="0 0 1600 700" preserveAspectRatio="xMidYMid slice">
<polygon points="0.0,0.0 150.5,0.0 0.0,145.2" fill="#2166C6" />
<polygon points="150.5,0.0 132.1,137.5 0.0,145.2" fill="#242327" />
<polygon points="150.5,0.0 237.3,0.0 272.7,110.9" fill="#33333A" />
<polygon points="150.5,0.0 272.7,110.9 132.1,137.5" fill="#2166C6" />
<polygon points="237.3,0.0 367.1,0.0 272.7,110.9" fill="#33333A" />
<polygon points="367.1,0.0 387.3,110.9 272.7,110.9" fill="#2B2A2F" />
<polygon points="367.1,0.0 555.2,0.0 516.0,85.4" fill="#33333A" />
<polygon points="367.1,0.0 516.0,85.4 387.3,110.9" fill="#2B2A2F" />
<polygon points="555.2,0.0 669.6,0.0 516.0,85.4" fill="#2B2A2F" />
<polygon points="669.6,0.0 696.5,141.0 516.0,85.4" fill="#33333A" />
<polygon points="669.6,0.0 780.8,0.0 845.3,132.3" fill="#242327" />
<polygon points="669.6,0.0 845.3,132.3 696.5,141.0" fill="#33333A" />
<polygon points="780.8,0.0 964.8,0.0 845.3,132.3" fill="#1E4C8C" />
<polygon points="964.8,0.0 938.4,137.0 845.3,132.3" fill="#33333A" />
<polygon points="964.8,0.0 1021.3,0.0 1032.6,131.1" fill="#2166C6" />
<polygon points="964.8,0.0 1032.6,131.1 938.4,137.0" fill="#1E4C8C" />
<polygon points="1021.3,0.0 1167.0,0.0 1032.6,131.1" fill="#242327" />
<polygon points="1167.0,0.0 1194.7,90.3 1032.6,131.1" fill="#33333A" />
<polygon points="1167.0,0.0 1362.2,0.0 1305.6,118.5" fill="#1E4C8C" />
<polygon points="1167.0,0.0 1305.6,118.5 1194.7,90.3" fill="#1E4C8C" />
<polygon points="1362.2,0.0 1497.1,0.0 1305.6,118.5" fill="#2B2A2F" />
<polygon points="1497.1,0.0 1443.6,113.4 1305.6,118.5" fill="#1E4C8C" />
<polygon points="1497.1,0.0 1600.0,0.0 1600.0,108.2" fill="#2B2A2F" />
<polygon points="1497.1,0.0 1600.0,108.2 1443.6,113.4" fill="#2B2A2F" />
<polygon points="0.0,145.2 132.1,137.5 108.6,211.7" fill="#242327" />
<polygon points="0.0,145.2 108.6,211.7 0.0,232.6" fill="#1A3F73" />
<polygon points="132.1,137.5 272.7,110.9 108.6,211.7" fill="#2B2A2F" />
<polygon points="272.7,110.9 238.2,222.4 108.6,211.7" fill="#2B2A2F" />
<polygon points="272.7,110.9 387.3,110.9 360.2,245.7" fill="#33333A" />
<polygon points="272.7,110.9 360.2,245.7 238.2,222.4" fill="#1A3F73" />
<polygon points="387.3,110.9 516.0,85.4 360.2,245.7" fill="#1E4C8C" />
<polygon points="516.0,85.4 575.7,224.3 360.2,245.7" fill="#2B2A2F" />
<polygon points="516.0,85.4 696.5,141.0 687.1,268.7" fill="#1E4C8C" />
<polygon points="516.0,85.4 687.1,268.7 575.7,224.3" fill="#1A3F73" />
<polygon points="696.5,141.0 845.3,132.3 687.1,268.7" fill="#2166C6" />
<polygon points="845.3,132.3 757.4,204.1 687.1,268.7" fill="#242327" />
<polygon points="845.3,132.3 938.4,137.0 961.9,260.9" fill="#33333A" />
<polygon points="845.3,132.3 961.9,260.9 757.4,204.1" fill="#1A3F73" />
<polygon points="938.4,137.0 1032.6,131.1 961.9,260.9" fill="#1A3F73" />
<polygon points="1032.6,131.1 1079.6,205.5 961.9,260.9" fill="#1A3F73" />
<polygon points="1032.6,131.1 1194.7,90.3 1191.9,263.4" fill="#1E4C8C" />
<polygon points="1032.6,131.1 1191.9,263.4 1079.6,205.5" fill="#2B2A2F" />
<polygon points="1194.7,90.3 1305.6,118.5 1191.9,263.4" fill="#2B2A2F" />
<polygon points="1305.6,118.5 1369.4,258.1 1191.9,263.4" fill="#2B2A2F" />
<polygon points="1305.6,118.5 1443.6,113.4 1439.0,262.2" fill="#1E4C8C" />
<polygon points="1305.6,118.5 1439.0,262.2 1369.4,258.1" fill="#2166C6" />
<polygon points="1443.6,113.4 1600.0,108.2 1439.0,262.2" fill="#2166C6" />
<polygon points="1600.0,108.2 1600.0,251.0 1439.0,262.2" fill="#2166C6" />
<polygon points="0.0,232.6 108.6,211.7 0.0,388.5" fill="#2166C6" />
<polygon points="108.6,211.7 143.0,368.2 0.0,388.5" fill="#1E4C8C" />
<polygon points="108.6,211.7 238.2,222.4 239.8,359.6" fill="#242327" />
<polygon points="108.6,211.7 239.8,359.6 143.0,368.2" fill="#242327" />
<polygon points="238.2,222.4 360.2,245.7 239.8,359.6" fill="#2166C6" />
<polygon points="360.2,245.7 407.5,357.5 239.8,359.6" fill="#1E4C8C" />
<polygon points="360.2,245.7 575.7,224.3 520.2,368.6" fill="#2B2A2F" />
<polygon points="360.2,245.7 520.2,368.6 407.5,357.5" fill="#33333A" />
<polygon points="575.7,224.3 687.1,268.7 520.2,368.6" fill="#2B2A2F" />
<polygon points="687.1,268.7 651.9,333.3 520.2,368.6" fill="#33333A" />
<polygon points="687.1,268.7 757.4,204.1 768.7,365.0" fill="#1E4C8C" />
<polygon points="687.1,268.7 768.7,365.0 651.9,333.3" fill="#1E4C8C" />
<polygon points="757.4,204.1 961.9,260.9 768.7,365.0" fill="#1E4C8C" />
<polygon points="961.9,260.9 897.1,327.6 768.7,365.0" fill="#242327" />
<polygon points="961.9,260.9 1079.6,205.5 1026.5,361.7" fill="#242327" />
<polygon points="961.9,260.9 1026.5,361.7 897.1,327.6" fill="#1E4C8C" />
<polygon points="1079.6,205.5 1191.9,263.4 1026.5,361.7" fill="#2166C6" />
<polygon points="1191.9,263.4 1205.2,353.5 1026.5,361.7" fill="#242327" />
<polygon points="1191.9,263.4 1369.4,258.1 1290.3,345.1" fill="#2166C6" />
<polygon points="1191.9,263.4 1290.3,345.1 1205.2,353.5" fill="#2166C6" />
<polygon points="1369.4,258.1 1439.0,262.2 1290.3,345.1" fill="#1E4C8C" />
<polygon points="1439.0,262.2 1452.0,316.7 1290.3,345.1" fill="#242327" />
<polygon points="1439.0,262.2 1600.0,251.0 1600.0,390.7" fill="#2166C6" />
<polygon points="1439.0,262.2 1600.0,390.7 1452.0,316.7" fill="#33333A" />
<polygon points="0.0,388.5 143.0,368.2 111.8,474.6" fill="#33333A" />
<polygon points="0.0,388.5 111.8,474.6 0.0,450.5" fill="#2166C6" />
<polygon points="143.0,368.2 239.8,359.6 111.8,474.6" fill="#242327" />
<polygon points="239.8,359.6 227.2,464.2 111.8,474.6" fill="#2166C6" />
<polygon points="239.8,359.6 407.5,357.5 387.6,494.0" fill="#1A3F73" />
<polygon points="239.8,359.6 387.6,494.0 227.2,464.2" fill="#2166C6" />
<polygon points="407.5,357.5 520.2,368.6 387.6,494.0" fill="#242327" />
<polygon points="520.2,368.6 487.2,453.2 387.6,494.0" fill="#2B2A2F" />
<polygon points="520.2,368.6 651.9,333.3 666.3,505.0" fill="#33333A" />
<polygon points="520.2,368.6 666.3,505.0 487.2,453.2" fill="#2B2A2F" />
<polygon points="651.9,333.3 768.7,365.0 666.3,505.0" fill="#2166C6" />
<polygon points="768.7,365.0 801.6,464.6 666.3,505.0" fill="#33333A" />
<polygon points="768.7,365.0 897.1,327.6 949.2,450.1" fill="#242327" />
<polygon points="768.7,365.0 949.2,450.1 801.6,464.6" fill="#242327" />
<polygon points="897.1,327.6 1026.5,361.7 949.2,450.1" fill="#2B2A2F" />
<polygon points="1026.5,361.7 1023.0,466.8 949.2,450.1" fill="#2B2A2F" />
<polygon points="1026.5,361.7 1205.2,353.5 1238.3,486.1" fill="#33333A" />
<polygon points="1026.5,361.7 1238.3,486.1 1023.0,466.8" fill="#242327" />
<polygon points="1205.2,353.5 1290.3,345.1 1238.3,486.1" fill="#1E4C8C" />
<polygon points="1290.3,345.1 1310.8,481.7 1238.3,486.1" fill="#2B2A2F" />
<polygon points="1290.3,345.1 1452.0,316.7 1499.3,446.9" fill="#2166C6" />
<polygon points="1290.3,345.1 1499.3,446.9 1310.8,481.7" fill="#33333A" />
<polygon points="1452.0,316.7 1600.0,390.7 1499.3,446.9" fill="#33333A" />
<polygon points="1600.0,390.7 1600.0,454.9 1499.3,446.9" fill="#1A3F73" />
<polygon points="0.0,450.5 111.8,474.6 0.0,566.0" fill="#2B2A2F" />
<polygon points="111.8,474.6 105.7,571.2 0.0,566.0" fill="#242327" />
<polygon points="111.8,474.6 227.2,464.2 223.6,575.0" fill="#1A3F73" />
<polygon points="111.8,474.6 223.6,575.0 105.7,571.2" fill="#1A3F73" />
<polygon points="227.2,464.2 387.6,494.0 223.6,575.0" fill="#1A3F73" />
<polygon points="387.6,494.0 361.4,604.4 223.6,575.0" fill="#1A3F73" />
<polygon points="387.6,494.0 487.2,453.2 542.6,542.8" fill="#2166C6" />
<polygon points="387.6,494.0 542.6,542.8 361.4,604.4" fill="#2B2A2F" />
<polygon points="487.2,453.2 666.3,505.0 542.6,542.8" fill="#33333A" />
<polygon points="666.3,505.0 692.2,558.1 542.6,542.8" fill="#2B2A2F" />
<polygon points="666.3,505.0 801.6,464.6 798.2,587.8" fill="#1A3F73" />
<polygon points="666.3,505.0 798.2,587.8 692.2,558.1" fill="#242327" />
<polygon points="801.6,464.6 949.2,450.1 798.2,587.8" fill="#1E4C8C" />
<polygon points="949.2,450.1 917.7,566.1 798.2,587.8" fill="#33333A" />
<polygon points="949.2,450.1 1023.0,466.8 1060.6,553.7" fill="#242327" />
<polygon points="949.2,450.1 1060.6,553.7 917.7,566.1" fill="#1A3F73" />
<polygon points="1023.0,466.8 1238.3,486.1 1060.6,553.7" fill="#2B2A2F" />
<polygon points="1238.3,486.1 1233.9,551.6 1060.6,553.7" fill="#1A3F73" />
<polygon points="1238.3,486.1 1310.8,481.7 1363.5,560.3" fill="#33333A" />
<polygon points="1238.3,486.1 1363.5,560.3 1233.9,551.6" fill="#2166C6" />
<polygon points="1310.8,481.7 1499.3,446.9 1363.5,560.3" fill="#1E4C8C" />
<polygon points="1499.3,446.9 1448.3,574.2 1363.5,560.3" fill="#242327" />
<polygon points="1499.3,446.9 1600.0,454.9 1600.0,553.0" fill="#2166C6" />
<polygon points="1499.3,446.9 1600.0,553.0 1448.3,574.2" fill="#2B2A2F" />
<polygon points="0.0,566.0 105.7,571.2 168.5,700.0" fill="#33333A" />
<polygon points="0.0,566.0 168.5,700.0 0.0,700.0" fill="#2B2A2F" />
<polygon points="105.7,571.2 223.6,575.0 168.5,700.0" fill="#242327" />
<polygon points="223.6,575.0 224.1,700.0 168.5,700.0" fill="#1E4C8C" />
<polygon points="223.6,575.0 361.4,604.4 365.4,700.0" fill="#33333A" />
<polygon points="223.6,575.0 365.4,700.0 224.1,700.0" fill="#33333A" />
<polygon points="361.4,604.4 542.6,542.8 365.4,700.0" fill="#2B2A2F" />
<polygon points="542.6,542.8 516.8,700.0 365.4,700.0" fill="#33333A" />
<polygon points="542.6,542.8 692.2,558.1 670.9,700.0" fill="#2166C6" />
<polygon points="542.6,542.8 670.9,700.0 516.8,700.0" fill="#1E4C8C" />
<polygon points="692.2,558.1 798.2,587.8 670.9,700.0" fill="#1A3F73" />
<polygon points="798.2,587.8 753.8,700.0 670.9,700.0" fill="#242327" />
<polygon points="798.2,587.8 917.7,566.1 967.7,700.0" fill="#33333A" />
<polygon points="798.2,587.8 967.7,700.0 753.8,700.0" fill="#2B2A2F" />
<polygon points="917.7,566.1 1060.6,553.7 967.7,700.0" fill="#33333A" />
<polygon points="1060.6,553.7 1064.7,700.0 967.7,700.0" fill="#1A3F73" />
<polygon points="1060.6,553.7 1233.9,551.6 1185.5,700.0" fill="#2166C6" />
<polygon points="1060.6,553.7 1185.5,700.0 1064.7,700.0" fill="#242327" />
<polygon points="1233.9,551.6 1363.5,560.3 1185.5,700.0" fill="#33333A" />
<polygon points="1363.5,560.3 1306.6,700.0 1185.5,700.0" fill="#1A3F73" />
<polygon points="1363.5,560.3 1448.3,574.2 1482.2,700.0" fill="#2B2A2F" />
<polygon points="1363.5,560.3 1482.2,700.0 1306.6,700.0" fill="#2B2A2F" />
<polygon points="1448.3,574.2 1600.0,553.0 1482.2,700.0" fill="#1E4C8C" />
<polygon points="1600.0,553.0 1600.0,700.0 1482.2,700.0" fill="#242327" />
</svg>